<svg id="Layer_1" data-name="Layer 1" xmlns="http://www.w3.org/2000/svg" viewBox="0 0 444.22 282.93"><defs><style>.cls-1{fill:#bfbbbc;}.cls-2{fill:#878787;}.cls-10,.cls-11,.cls-12,.cls-13,.cls-14,.cls-15,.cls-16,.cls-17,.cls-18,.cls-19,.cls-20,.cls-21,.cls-22,.cls-23,.cls-24,.cls-25,.cls-26,.cls-27,.cls-28,.cls-29,.cls-3,.cls-4,.cls-5,.cls-6,.cls-7,.cls-8,.cls-9{fill:#7e7f7f;}.cls-3{opacity:0.45;}.cls-4{opacity:0.5;}.cls-5{opacity:0.6;}.cls-6{opacity:0.55;}.cls-7{opacity:0.65;}.cls-8{opacity:0.4;}.cls-9{opacity:0.3;}.cls-10{opacity:0.25;}.cls-11{opacity:0.35;}.cls-12{opacity:0.9;}.cls-13{opacity:0.75;}.cls-14{opacity:0.7;}.cls-15{opacity:0.06;}.cls-16{opacity:0.2;}.cls-17{opacity:0.08;}.cls-18{opacity:0.8;}.cls-19{opacity:0.95;}.cls-20{opacity:0.85;}.cls-21{opacity:0.02;}.cls-22{opacity:0.15;}.cls-24{opacity:0.09;}.cls-25{opacity:0.1;}.cls-26{opacity:0.07;}.cls-27{opacity:0.05;}.cls-28{opacity:0.03;}.cls-29{opacity:0.04;}</style></defs><title>vibrasafe  logo asset</title><path class="cls-1" d="M98.63,426.23l4-51.82h7.94q-.89,8.69-1.54,14.92l-1.1,10.47q-.45,4.25-.72,6.88t-.44,4.21q-.17,1.58-.27,2.4c-.07.55-.13,1-.17,1.51h.55q.14-.68.34-1.51t.58-2.4q.38-1.57,1-4.21t1.71-6.88q1.06-4.24,2.64-10.44t3.76-15h8.15l-14.51,51.82Z" transform="translate(-97.57 -144.19)"/><path class="cls-1" d="M142.58,426.23l9.1-51.82h7.8l-9.1,51.82Z" transform="translate(-97.57 -144.19)"/><path class="cls-1" d="M178.1,426.23l9.1-51.82H199q4,0,5.72,1.61t1.75,5.71a37.86,37.86,0,0,1-.38,5.27,46.11,46.11,0,0,1-1.06,5.27,21.84,21.84,0,0,1-.86,2.84,12.63,12.63,0,0,1-.92,1.92,4.61,4.61,0,0,1-1.1,1.27q-.62.48-1.3,1l-.07.48c.32.27.63.53.92.75a3,3,0,0,1,.72.79,4.09,4.09,0,0,1,.44,1.13,7.24,7.24,0,0,1,.17,1.71,29.62,29.62,0,0,1-.55,5.68q-.55,2.81-1.1,5.68a27.15,27.15,0,0,1-1.61,5.06,10.7,10.7,0,0,1-2.22,3.32,7.57,7.57,0,0,1-3,1.81,13,13,0,0,1-4,.55Zm12.32-8.15a2.79,2.79,0,0,0,2.33-1.16,12.52,12.52,0,0,0,1.57-4.72q.48-2.74.65-4.24a22.57,22.57,0,0,0,.17-2.4q0-1.57-.51-2a2.47,2.47,0,0,0-1.47-.38h-3.49L187,418.08Zm3.49-21.56a2.76,2.76,0,0,0,1.37-.31,3,3,0,0,0,1-1.09,7.93,7.93,0,0,0,.82-2.16q.34-1.37.75-3.56.34-1.78.51-3a15.25,15.25,0,0,0,.17-2q0-1.37-.55-1.64a4,4,0,0,0-1.71-.27h-3l-2.46,14Z" transform="translate(-97.57 -144.19)"/><path class="cls-1" d="M240,426.23q-.07-.34-.1-.65a7.2,7.2,0,0,1,0-.79q0-1.23.21-3.63t.44-5q.24-2.63.44-4.93t.21-3.32a4.07,4.07,0,0,0-.38-2.19,1.52,1.52,0,0,0-1.27-.48h-2.05l-3.7,21h-7.53l9.1-51.82h12q4,0,5.61,1.64t1.64,5.48c0,.46,0,1,0,1.51s-.09,1.21-.21,2-.26,1.71-.44,2.81-.41,2.4-.68,3.9a38.26,38.26,0,0,1-1.13,4.31,15.07,15.07,0,0,1-1.23,2.81,6.41,6.41,0,0,1-1.4,1.71,8.5,8.5,0,0,1-1.57,1l-.07.41a4,4,0,0,1,1,2.05,16.86,16.86,0,0,1,.27,3.35q0,2.12-.17,4.52t-.41,4.72q-.24,2.33-.41,4.48t-.17,3.8v1.3Zm1.23-28.61a4.64,4.64,0,0,0,1.71-.27,2.62,2.62,0,0,0,1.2-1.06,7.73,7.73,0,0,0,.89-2.16q.38-1.37.79-3.56.41-2.4.55-3.59a18,18,0,0,0,.14-2,2.52,2.52,0,0,0-.48-1.78,2.28,2.28,0,0,0-1.64-.48h-3l-2.6,14.85Z" transform="translate(-97.57 -144.19)"/><path class="cls-1" d="M287.69,426.23l1.37-13h-4.79l-3.22,13h-7.67l13.9-51.82H300l-4.59,51.82Zm4.59-43.33h-.55L286,405h4.17Z" transform="translate(-97.57 -144.19)"/><path class="cls-1" d="M324,403.5l1.16-6.71H342l-1.16,6.71Z" transform="translate(-97.57 -144.19)"/><path class="cls-1" d="M381.26,390.5q.34-1.57.72-3.39a16.51,16.51,0,0,0,.38-3.32q0-1.3-.55-1.68a3.57,3.57,0,0,0-1.92-.38,4.23,4.23,0,0,0-1.4.21,2.18,2.18,0,0,0-1,.72,4.63,4.63,0,0,0-.72,1.47,19.72,19.72,0,0,0-.58,2.46q-.48,2.19-.62,3.32a15.71,15.71,0,0,0-.14,1.81,2.42,2.42,0,0,0,.17,1,5.09,5.09,0,0,0,.51.86,11.89,11.89,0,0,0,1.54,1.4q.92.72,2,1.37l2,1.3q1,.65,1.68,1.2a10.78,10.78,0,0,1,1.78,2.09,6.08,6.08,0,0,1,.62,3.11q0,1.3-.21,3.35t-1,6.16a39.78,39.78,0,0,1-1.75,6.5,12.64,12.64,0,0,1-2.46,4.18,8.08,8.08,0,0,1-3.56,2.22,19.72,19.72,0,0,1-8.49.34,5.82,5.82,0,0,1-2.46-1.09,4.6,4.6,0,0,1-1.47-2.16,10.71,10.71,0,0,1-.48-3.49,29.17,29.17,0,0,1,.55-5.61,46.89,46.89,0,0,1,1.44-5.54h6.37a32.84,32.84,0,0,0-.79,3.42,21.67,21.67,0,0,0-.38,3.9q0,1.57.58,2a3.24,3.24,0,0,0,1.75.38,5.46,5.46,0,0,0,1.57-.21,2.18,2.18,0,0,0,1.16-.89,7.53,7.53,0,0,0,.89-2,29.76,29.76,0,0,0,.82-3.39q.41-2.05.51-2.87a11.1,11.1,0,0,0,.1-1.3,4,4,0,0,0-.17-1.3,4.06,4.06,0,0,0-.58-1A7.24,7.24,0,0,0,376,404q-1.06-.82-2.22-1.64l-2.29-1.64a10,10,0,0,1-1.81-1.64,6,6,0,0,1-1.13-1.81,8.06,8.06,0,0,1-.31-2.57,29.49,29.49,0,0,1,.24-3.39q.24-2,.86-5.17A36,36,0,0,1,371,380a11.43,11.43,0,0,1,2.29-3.87,7.44,7.44,0,0,1,3.32-2,16.87,16.87,0,0,1,4.76-.58q4.52,0,6.37,1.44t1.85,4.93a19.39,19.39,0,0,1-.17,2.43q-.17,1.33-.45,2.74t-.62,2.81q-.34,1.4-.75,2.63Z" transform="translate(-97.57 -144.19)"/><path class="cls-1" d="M421.79,426.23l1.37-13h-4.79l-3.22,13h-7.67l13.9-51.82h12.73l-4.59,51.82Zm4.59-43.33h-.55L420.08,405h4.17Z" transform="translate(-97.57 -144.19)"/><path class="cls-1" d="M455.87,426.23l9.1-51.82H482.3L480.79,383H471l-2.4,13.62h9.58l-1.44,8.28h-9.58l-3.76,21.36Z" transform="translate(-97.57 -144.19)"/><path class="cls-1" d="M499.82,426.23l9.1-51.82h17.52L524.94,383h-10l-2.26,12.73h9.79L521,403.84h-9.79l-2.33,13.42h9.92l-1.57,9Z" transform="translate(-97.57 -144.19)"/><path class="cls-2" d="M103.08,426.23l4-51.82H115q-.89,8.69-1.54,14.92l-1.1,10.47q-.45,4.25-.72,6.88t-.44,4.21q-.17,1.58-.27,2.4c-.07.55-.13,1-.17,1.51h.55q.14-.68.34-1.51t.58-2.4q.38-1.57,1-4.21t1.71-6.88q1.06-4.24,2.64-10.44t3.76-15h8.15L115,426.23Z" transform="translate(-97.57 -144.19)"/><path class="cls-2" d="M147,426.23l9.1-51.82h7.8l-9.1,51.82Z" transform="translate(-97.57 -144.19)"/><path class="cls-2" d="M182.55,426.23l9.1-51.82h11.77q4,0,5.72,1.61t1.75,5.71a37.86,37.86,0,0,1-.38,5.27,46.11,46.11,0,0,1-1.06,5.27,21.84,21.84,0,0,1-.86,2.84,12.63,12.63,0,0,1-.92,1.92,4.61,4.61,0,0,1-1.1,1.27q-.62.48-1.3,1l-.07.48c.32.27.63.53.92.75a3,3,0,0,1,.72.79,4.09,4.09,0,0,1,.44,1.13,7.24,7.24,0,0,1,.17,1.71,29.62,29.62,0,0,1-.55,5.68q-.55,2.81-1.1,5.68a27.15,27.15,0,0,1-1.61,5.06,10.7,10.7,0,0,1-2.22,3.32,7.57,7.57,0,0,1-3,1.81,13,13,0,0,1-4,.55Zm12.32-8.15a2.79,2.79,0,0,0,2.33-1.16,12.52,12.52,0,0,0,1.57-4.72q.48-2.74.65-4.24a22.57,22.57,0,0,0,.17-2.4q0-1.57-.51-2a2.47,2.47,0,0,0-1.47-.38h-3.49l-2.67,14.85Zm3.49-21.56a2.76,2.76,0,0,0,1.37-.31,3,3,0,0,0,1-1.09,7.93,7.93,0,0,0,.82-2.16q.34-1.37.75-3.56.34-1.78.51-3a15.25,15.25,0,0,0,.17-2q0-1.37-.55-1.64a4,4,0,0,0-1.71-.27h-3l-2.46,14Z" transform="translate(-97.57 -144.19)"/><path class="cls-2" d="M244.43,426.23q-.07-.34-.1-.65a7.2,7.2,0,0,1,0-.79q0-1.23.21-3.63t.44-5q.24-2.63.44-4.93t.21-3.32a4.07,4.07,0,0,0-.38-2.19,1.52,1.52,0,0,0-1.27-.48h-2.05l-3.7,21h-7.53l9.1-51.82h12q4,0,5.61,1.64t1.64,5.48c0,.46,0,1,0,1.51s-.09,1.21-.21,2-.26,1.71-.44,2.81-.41,2.4-.68,3.9a38.26,38.26,0,0,1-1.13,4.31,15.07,15.07,0,0,1-1.23,2.81,6.41,6.41,0,0,1-1.4,1.71,8.5,8.5,0,0,1-1.57,1l-.07.41a4,4,0,0,1,1,2.05,16.86,16.86,0,0,1,.27,3.35q0,2.12-.17,4.52t-.41,4.72q-.24,2.33-.41,4.48t-.17,3.8v1.3Zm1.23-28.61a4.64,4.64,0,0,0,1.71-.27,2.62,2.62,0,0,0,1.2-1.06,7.73,7.73,0,0,0,.89-2.16q.38-1.37.79-3.56.41-2.4.55-3.59a18,18,0,0,0,.14-2,2.52,2.52,0,0,0-.48-1.78,2.28,2.28,0,0,0-1.64-.48h-3l-2.6,14.85Z" transform="translate(-97.57 -144.19)"/><path class="cls-2" d="M292.13,426.23l1.37-13h-4.79l-3.22,13h-7.67l13.9-51.82h12.73l-4.59,51.82Zm4.59-43.33h-.55L290.42,405h4.17Z" transform="translate(-97.57 -144.19)"/><path class="cls-2" d="M328.41,403.5l1.16-6.71h16.91l-1.16,6.71Z" transform="translate(-97.57 -144.19)"/><path class="cls-2" d="M385.71,390.5q.34-1.57.72-3.39a16.51,16.51,0,0,0,.38-3.32q0-1.3-.55-1.68a3.57,3.57,0,0,0-1.92-.38,4.23,4.23,0,0,0-1.4.21,2.18,2.18,0,0,0-1,.72,4.63,4.63,0,0,0-.72,1.47,19.72,19.72,0,0,0-.58,2.46q-.48,2.19-.62,3.32a15.71,15.71,0,0,0-.14,1.81,2.42,2.42,0,0,0,.17,1,5.09,5.09,0,0,0,.51.86,11.89,11.89,0,0,0,1.54,1.4q.92.72,2,1.37l2,1.3q1,.65,1.68,1.2a10.78,10.78,0,0,1,1.78,2.09,6.08,6.08,0,0,1,.62,3.11q0,1.3-.21,3.35t-1,6.16a39.78,39.78,0,0,1-1.75,6.5,12.64,12.64,0,0,1-2.46,4.18,8.08,8.08,0,0,1-3.56,2.22,19.72,19.72,0,0,1-8.49.34,5.82,5.82,0,0,1-2.46-1.09,4.6,4.6,0,0,1-1.47-2.16,10.71,10.71,0,0,1-.48-3.49,29.17,29.17,0,0,1,.55-5.61,46.89,46.89,0,0,1,1.44-5.54h6.37a32.84,32.84,0,0,0-.79,3.42,21.67,21.67,0,0,0-.38,3.9q0,1.57.58,2a3.24,3.24,0,0,0,1.75.38,5.46,5.46,0,0,0,1.57-.21,2.18,2.18,0,0,0,1.16-.89,7.53,7.53,0,0,0,.89-2,29.76,29.76,0,0,0,.82-3.39q.41-2.05.51-2.87a11.1,11.1,0,0,0,.1-1.3,4,4,0,0,0-.17-1.3,4.06,4.06,0,0,0-.58-1,7.24,7.24,0,0,0-1.61-1.64q-1.06-.82-2.22-1.64L376,400.7a10,10,0,0,1-1.81-1.64,6,6,0,0,1-1.13-1.81,8.06,8.06,0,0,1-.31-2.57,29.49,29.49,0,0,1,.24-3.39q.24-2,.86-5.17A36,36,0,0,1,375.4,380a11.43,11.43,0,0,1,2.29-3.87,7.44,7.44,0,0,1,3.32-2,16.87,16.87,0,0,1,4.76-.58q4.52,0,6.37,1.44t1.85,4.93a19.39,19.39,0,0,1-.17,2.43q-.17,1.33-.45,2.74t-.62,2.81q-.34,1.4-.75,2.63Z" transform="translate(-97.57 -144.19)"/><path class="cls-2" d="M426.23,426.23l1.37-13h-4.79l-3.22,13h-7.67l13.9-51.82h12.73L434,426.23Zm4.59-43.33h-.55L424.52,405h4.17Z" transform="translate(-97.57 -144.19)"/><path class="cls-2" d="M460.32,426.23l9.1-51.82h17.32L485.23,383h-9.79L473,396.59h9.58l-1.44,8.28h-9.58l-3.76,21.36Z" transform="translate(-97.57 -144.19)"/><path class="cls-2" d="M504.26,426.23l9.1-51.82h17.52L529.38,383h-10l-2.26,12.73h9.79l-1.44,8.15h-9.79l-2.33,13.42h9.92l-1.57,9Z" transform="translate(-97.57 -144.19)"/><path d="M107.52,426.23l4-51.82h7.94q-.89,8.69-1.54,14.92l-1.1,10.47q-.45,4.25-.72,6.88t-.44,4.21q-.17,1.58-.27,2.4c-.07.55-.13,1-.17,1.51h.55q.14-.68.34-1.51t.58-2.4q.38-1.57,1-4.21t1.71-6.88q1.06-4.24,2.64-10.44t3.76-15h8.15l-14.51,51.82Z" transform="translate(-97.57 -144.19)"/><path d="M151.46,426.23l9.1-51.82h7.8l-9.1,51.82Z" transform="translate(-97.57 -144.19)"/><path d="M187,426.23l9.1-51.82h11.77q4,0,5.72,1.61t1.75,5.71a37.86,37.86,0,0,1-.38,5.27,46.11,46.11,0,0,1-1.06,5.27,21.84,21.84,0,0,1-.86,2.84,12.63,12.63,0,0,1-.92,1.92,4.61,4.61,0,0,1-1.1,1.27q-.62.48-1.3,1l-.07.48c.32.27.63.53.92.75a3,3,0,0,1,.72.79,4.09,4.09,0,0,1,.44,1.13,7.24,7.24,0,0,1,.17,1.71,29.62,29.62,0,0,1-.55,5.68q-.55,2.81-1.1,5.68a27.15,27.15,0,0,1-1.61,5.06,10.7,10.7,0,0,1-2.22,3.32,7.57,7.57,0,0,1-3,1.81,13,13,0,0,1-4,.55Zm12.32-8.15a2.79,2.79,0,0,0,2.33-1.16,12.52,12.52,0,0,0,1.57-4.72q.48-2.74.65-4.24a22.57,22.57,0,0,0,.17-2.4q0-1.57-.51-2a2.47,2.47,0,0,0-1.47-.38h-3.49l-2.67,14.85Zm3.49-21.56a2.76,2.76,0,0,0,1.37-.31,3,3,0,0,0,1-1.09A7.93,7.93,0,0,0,206,393q.34-1.37.75-3.56.34-1.78.51-3a15.25,15.25,0,0,0,.17-2q0-1.37-.55-1.64a4,4,0,0,0-1.71-.27h-3l-2.46,14Z" transform="translate(-97.57 -144.19)"/><path d="M248.87,426.23q-.07-.34-.1-.65a7.2,7.2,0,0,1,0-.79q0-1.23.21-3.63t.44-5q.24-2.63.44-4.93t.21-3.32a4.07,4.07,0,0,0-.38-2.19,1.52,1.52,0,0,0-1.27-.48h-2.05l-3.7,21h-7.53l9.1-51.82h12q4,0,5.61,1.64t1.64,5.48c0,.46,0,1,0,1.51s-.09,1.21-.21,2-.26,1.71-.44,2.81-.41,2.4-.68,3.9a38.26,38.26,0,0,1-1.13,4.31,15.07,15.07,0,0,1-1.23,2.81,6.41,6.41,0,0,1-1.4,1.71,8.5,8.5,0,0,1-1.57,1l-.07.41a4,4,0,0,1,1,2.05,16.86,16.86,0,0,1,.27,3.35q0,2.12-.17,4.52t-.41,4.72q-.24,2.33-.41,4.48t-.17,3.8v1.3Zm1.23-28.61a4.64,4.64,0,0,0,1.71-.27,2.62,2.62,0,0,0,1.2-1.06,7.73,7.73,0,0,0,.89-2.16q.38-1.37.79-3.56.41-2.4.55-3.59a18,18,0,0,0,.14-2,2.52,2.52,0,0,0-.48-1.78,2.28,2.28,0,0,0-1.64-.48h-3l-2.6,14.85Z" transform="translate(-97.57 -144.19)"/><path d="M296.58,426.23l1.37-13h-4.79l-3.22,13h-7.67l13.9-51.82H308.9l-4.59,51.82Zm4.59-43.33h-.55L294.87,405H299Z" transform="translate(-97.57 -144.19)"/><path d="M332.85,403.5l1.16-6.71h16.91l-1.16,6.71Z" transform="translate(-97.57 -144.19)"/><path d="M390.15,390.5q.34-1.57.72-3.39a16.51,16.51,0,0,0,.38-3.32q0-1.3-.55-1.68a3.57,3.57,0,0,0-1.92-.38,4.23,4.23,0,0,0-1.4.21,2.18,2.18,0,0,0-1,.72,4.63,4.63,0,0,0-.72,1.47,19.72,19.72,0,0,0-.58,2.46q-.48,2.19-.62,3.32a15.71,15.71,0,0,0-.14,1.81,2.42,2.42,0,0,0,.17,1,5.09,5.09,0,0,0,.51.86,11.89,11.89,0,0,0,1.54,1.4q.92.72,2,1.37l2,1.3q1,.65,1.68,1.2a10.78,10.78,0,0,1,1.78,2.09,6.08,6.08,0,0,1,.62,3.11q0,1.3-.21,3.35t-1,6.16a39.78,39.78,0,0,1-1.75,6.5,12.64,12.64,0,0,1-2.46,4.18,8.08,8.08,0,0,1-3.56,2.22,19.72,19.72,0,0,1-8.49.34,5.82,5.82,0,0,1-2.46-1.09,4.6,4.6,0,0,1-1.47-2.16,10.71,10.71,0,0,1-.48-3.49,29.17,29.17,0,0,1,.55-5.61,46.89,46.89,0,0,1,1.44-5.54H381a32.84,32.84,0,0,0-.79,3.42,21.67,21.67,0,0,0-.38,3.9q0,1.57.58,2a3.24,3.24,0,0,0,1.75.38,5.46,5.46,0,0,0,1.57-.21,2.18,2.18,0,0,0,1.16-.89,7.53,7.53,0,0,0,.89-2,29.76,29.76,0,0,0,.82-3.39q.41-2.05.51-2.87a11.1,11.1,0,0,0,.1-1.3,4,4,0,0,0-.17-1.3,4.06,4.06,0,0,0-.58-1,7.24,7.24,0,0,0-1.61-1.64q-1.06-.82-2.22-1.64l-2.29-1.64a10,10,0,0,1-1.81-1.64,6,6,0,0,1-1.13-1.81,8.06,8.06,0,0,1-.31-2.57,29.49,29.49,0,0,1,.24-3.39q.24-2,.86-5.17a36,36,0,0,1,1.61-6.13,11.43,11.43,0,0,1,2.29-3.87,7.44,7.44,0,0,1,3.32-2,16.87,16.87,0,0,1,4.76-.58q4.52,0,6.37,1.44t1.85,4.93a19.39,19.39,0,0,1-.17,2.43q-.17,1.33-.45,2.74t-.62,2.81q-.34,1.4-.75,2.63Z" transform="translate(-97.57 -144.19)"/><path d="M430.67,426.23l1.37-13h-4.79l-3.22,13h-7.67l13.9-51.82H443l-4.59,51.82Zm4.59-43.33h-.55L429,405h4.17Z" transform="translate(-97.57 -144.19)"/><path d="M464.76,426.23l9.1-51.82h17.32L489.67,383h-9.79l-2.4,13.62h9.58l-1.44,8.28h-9.58l-3.76,21.36Z" transform="translate(-97.57 -144.19)"/><path d="M508.7,426.23l9.1-51.82h17.52L533.82,383h-10l-2.26,12.73h9.79l-1.44,8.15h-9.79l-2.33,13.42h9.92l-1.57,9Z" transform="translate(-97.57 -144.19)"/><path class="cls-3" d="M397,158q-5.27-2-10.67-3.66L174.41,366.29h14.33Z" transform="translate(-97.57 -144.19)"/><path class="cls-4" d="M384.93,153.93q-5.13-1.57-10.35-2.9L159.31,366.29h13.26Z" transform="translate(-97.57 -144.19)"/><path class="cls-5" d="M359.78,147.81q-5.9-1.08-11.9-1.85L127.54,366.29h13.75Z" transform="translate(-97.57 -144.19)"/><path class="cls-6" d="M373.09,150.67q-5.82-1.44-11.76-2.57L143.14,366.29h14.33Z" transform="translate(-97.57 -144.19)"/><path class="cls-7" d="M346.22,145.77q-6.52-.78-13.16-1.17l-221.7,221.7H125.7Z" transform="translate(-97.57 -144.19)"/><path class="cls-8" d="M408.45,162.65q-5-2.18-10.11-4.12L190.58,366.29H204.8Z" transform="translate(-97.57 -144.19)"/><path class="cls-9" d="M429.29,173.08q-4.25-2.41-8.6-4.65L222.82,366.29h13.26Z" transform="translate(-97.57 -144.19)"/><path class="cls-10" d="M439.37,179.17q-4.39-2.81-8.91-5.42L237.92,366.29h14.33Z" transform="translate(-97.57 -144.19)"/><path class="cls-11" d="M419.45,167.82q-4.8-2.42-9.72-4.6L206.65,366.29H221Z" transform="translate(-97.57 -144.19)"/><path class="cls-12" d="M260,152.3q-10.1,2.81-19.79,6.53l-128,128q-3.71,9.69-6.53,19.79Z" transform="translate(-97.57 -144.19)"/><path class="cls-13" d="M316.5,144.23q-7.58.11-15,.71L98.32,348.08q-.6,7.45-.71,15Z" transform="translate(-97.57 -144.19)"/><path class="cls-14" d="M319.68,144.19l-1.31,0L97.59,365c0,.44,0,.87,0,1.31h12L331.34,144.49Q325.54,144.19,319.68,144.19Z" transform="translate(-97.57 -144.19)"/><path class="cls-15" d="M491.65,225.74,355.39,362a36.2,36.2,0,0,1,.28,4.29h8.68L497.48,233.17Q494.65,229.39,491.65,225.74Z" transform="translate(-97.57 -144.19)"/><path class="cls-16" d="M290.24,345.63a36.16,36.16,0,0,1,8.77-8.77L449.67,186.2q-4.51-3.26-9.18-6.3l-186.4,186.4h15.48Z" transform="translate(-97.57 -144.19)"/><path class="cls-17" d="M476.32,208.83,344.7,340.45a36.09,36.09,0,0,1,6.22,8L483.29,216.09Q479.88,212.39,476.32,208.83Z" transform="translate(-97.57 -144.19)"/><path class="cls-18" d="M299.44,145.11q-8.25.74-16.31,2.08L100.58,329.75q-1.33,8.06-2.08,16.31Z" transform="translate(-97.57 -144.19)"/><path class="cls-19" d="M126.8,256.08a221.15,221.15,0,0,0-13.4,27.73L237.2,160a221.16,221.16,0,0,0-27.73,13.4Z" transform="translate(-97.57 -144.19)"/><path class="cls-20" d="M280.92,147.56q-9.33,1.64-18.39,4.06L105,309.15q-2.4,9-4.06,18.39Z" transform="translate(-97.57 -144.19)"/><path class="cls-21" d="M541,347.08q-.5-5.81-1.29-11.53l-30.75,30.75h12.82Z" transform="translate(-97.57 -144.19)"/><path class="cls-21" d="M526,283.87q-2-5.08-4.3-10l-92.45,92.45h14.33Z" transform="translate(-97.57 -144.19)"/><path class="cls-21" d="M539.43,333.93q-.9-6.16-2.12-12.21l-44.57,44.57h14.33Z" transform="translate(-97.57 -144.19)"/><path class="cls-21" d="M537,320.21q-1.14-5.41-2.54-10.72l-56.8,56.8H490.9Z" transform="translate(-97.57 -144.19)"/><path class="cls-21" d="M530.3,295.62q-1.77-5.28-3.79-10.43L445.4,366.29h14.23Z" transform="translate(-97.57 -144.19)"/><path class="cls-22" d="M287.53,350.18l-16.11,16.11h12.27A35.78,35.78,0,0,1,287.53,350.18Z" transform="translate(-97.57 -144.19)"/><path class="cls-21" d="M539.74,366.29h2c0-.67,0-1.34,0-2Z" transform="translate(-97.57 -144.19)"/><path class="cls-21" d="M541.74,362.46q-.12-6.9-.64-13.69l-17.53,17.53H537.9Z" transform="translate(-97.57 -144.19)"/><path class="cls-23" d="M205,176.06a223.23,223.23,0,0,0-75.54,75.54Z" transform="translate(-97.57 -144.19)"/><path class="cls-21" d="M534.05,308q-1.51-5.57-3.3-11l-69.28,69.28H475.8Z" transform="translate(-97.57 -144.19)"/><path class="cls-24" d="M475.38,207.92q-3.61-3.55-7.39-6.94L335.15,333.83a36,36,0,0,1,8.59,5.74Z" transform="translate(-97.57 -144.19)"/><path class="cls-25" d="M467,200.11q-3.52-3.12-7.16-6.1L323.39,330.49a35.74,35.74,0,0,1,10.52,2.74Z" transform="translate(-97.57 -144.19)"/><path class="cls-22" d="M450.74,187,303.56,334.14a35.78,35.78,0,0,1,16.11-3.84c.66,0,1.31.06,2,.1l137.2-137.2Q454.86,190,450.74,187Z" transform="translate(-97.57 -144.19)"/><path class="cls-26" d="M490.82,224.72q-3.24-3.91-6.65-7.68l-132.6,132.6a35.72,35.72,0,0,1,3.57,10.75Z" transform="translate(-97.57 -144.19)"/><path class="cls-27" d="M504.19,242.63q-2.87-4.27-5.93-8.4L366.2,366.29h14.33Z" transform="translate(-97.57 -144.19)"/><path class="cls-28" d="M516.08,262.51q-2.47-4.66-5.15-9.18l-113,113h14.33Z" transform="translate(-97.57 -144.19)"/><path class="cls-29" d="M510.25,252.16q-2.57-4.28-5.32-8.43L382.37,366.29h13.75Z" transform="translate(-97.57 -144.19)"/><path class="cls-21" d="M521.09,272.59q-2.09-4.49-4.38-8.88L414.13,366.29h13.26Z" transform="translate(-97.57 -144.19)"/></svg>