<?xml version="1.0" encoding="UTF-8" standalone="no"?>
<!-- Generator: Adobe Illustrator 20.0.0, SVG Export Plug-In . SVG Version: 6.00 Build 0)  -->

<svg
   xmlns:dc="http://purl.org/dc/elements/1.1/"
   xmlns:cc="http://creativecommons.org/ns#"
   xmlns:rdf="http://www.w3.org/1999/02/22-rdf-syntax-ns#"
   xmlns:svg="http://www.w3.org/2000/svg"
   xmlns="http://www.w3.org/2000/svg"
   xmlns:sodipodi="http://sodipodi.sourceforge.net/DTD/sodipodi-0.dtd"
   xmlns:inkscape="http://www.inkscape.org/namespaces/inkscape"
   version="1.1"
   id="Layer_1"
   x="0px"
   y="0px"
   viewBox="0 0 444.2 55.9"
   style="enable-background:new 0 0 444.2 55.9;"
   xml:space="preserve"
   inkscape:version="0.91 r13725"
   sodipodi:docname="banner.svg"
   inkscape:export-filename="/Users/neonfuz/prog/web/vibra-safe/src/assets/img/banner.png"
   inkscape:export-xdpi="72.184662"
   inkscape:export-ydpi="72.184662"><metadata
     id="metadata71"><rdf:RDF><cc:Work
         rdf:about=""><dc:format>image/svg+xml</dc:format><dc:type
           rdf:resource="http://purl.org/dc/dcmitype/StillImage" /><dc:title>vibrasafe  logo asset</dc:title></cc:Work></rdf:RDF></metadata><defs
     id="defs69" /><sodipodi:namedview
     pagecolor="#ffffff"
     bordercolor="#666666"
     borderopacity="1"
     objecttolerance="10"
     gridtolerance="10"
     guidetolerance="10"
     inkscape:pageopacity="0"
     inkscape:pageshadow="2"
     inkscape:window-width="1319"
     inkscape:window-height="723"
     id="namedview67"
     showgrid="false"
     inkscape:zoom="0.61683924"
     inkscape:cx="-39.718614"
     inkscape:cy="27.950001"
     inkscape:window-x="47"
     inkscape:window-y="1"
     inkscape:window-maximized="1"
     inkscape:current-layer="Layer_1" /><style
     type="text/css"
     id="style3">
	.st0{fill:#BFBBBC;}
	.st1{fill:#878787;}
</style><title
     id="title5">vibrasafe  logo asset</title><path
     class="st0"
     d="M1.1,55l4-51.8H13C12.4,9,11.9,14,11.5,18.1l-1.1,10.5c-0.3,2.8-0.5,5.1-0.7,6.9c-0.2,1.8-0.3,3.2-0.4,4.2  c-0.1,1.1-0.2,1.9-0.3,2.4c-0.1,0.5-0.1,1-0.2,1.5h0.6c0.1-0.5,0.2-1,0.3-1.5s0.3-1.4,0.6-2.4s0.6-2.4,1-4.2c0.4-1.8,1-4.1,1.7-6.9  c0.7-2.8,1.6-6.3,2.6-10.4c1.1-4.1,2.3-9.1,3.8-15h8.2L13,55L1.1,55z"
     id="path7" /><path
     class="st0"
     d="M45,55l9.1-51.8h7.8L52.8,55H45z"
     id="path9" /><path
     class="st0"
     d="M80.5,55l9.1-51.8h11.8c2.7,0,4.6,0.5,5.7,1.6c1.1,1.1,1.7,3,1.8,5.7c0,1.8-0.1,3.5-0.4,5.3  c-0.3,1.8-0.6,3.5-1.1,5.3c-0.2,1-0.5,1.9-0.9,2.8c-0.3,0.7-0.6,1.3-0.9,1.9c-0.3,0.5-0.7,0.9-1.1,1.3c-0.4,0.3-0.8,0.7-1.3,1  l-0.1,0.5c0.3,0.3,0.6,0.5,0.9,0.8c0.3,0.2,0.5,0.5,0.7,0.8c0.2,0.4,0.4,0.7,0.4,1.1c0.1,0.6,0.2,1.1,0.2,1.7c0,1.9-0.2,3.8-0.6,5.7  c-0.4,1.9-0.7,3.8-1.1,5.7c-0.4,1.7-0.9,3.4-1.6,5.1c-0.5,1.2-1.3,2.4-2.2,3.3c-0.8,0.8-1.9,1.4-3,1.8c-1.3,0.4-2.6,0.6-4,0.5  L80.5,55z M92.9,46.9c0.9,0,1.8-0.4,2.3-1.2c0.8-1.5,1.4-3.1,1.6-4.7c0.3-1.8,0.5-3.2,0.6-4.2c0.1-0.8,0.2-1.6,0.2-2.4  c0-1-0.2-1.7-0.5-2c-0.4-0.3-1-0.4-1.5-0.4h-3.5l-2.7,14.9L92.9,46.9z M96.3,25.3c0.5,0,0.9-0.1,1.4-0.3c0.4-0.3,0.8-0.6,1-1.1  c0.4-0.7,0.7-1.4,0.8-2.2c0.2-0.9,0.5-2.1,0.8-3.6c0.2-1.2,0.4-2.2,0.5-3c0.1-0.7,0.2-1.3,0.2-2c0-0.9-0.2-1.5-0.6-1.6  c-0.5-0.2-1.1-0.3-1.7-0.3h-3l-2.5,14L96.3,25.3z"
     id="path11" /><path
     class="st0"
     d="M142.4,55c0-0.2-0.1-0.4-0.1-0.6c0-0.3,0-0.5,0-0.8c0-0.8,0.1-2,0.2-3.6c0.1-1.6,0.3-3.3,0.4-5  c0.2-1.8,0.3-3.4,0.4-4.9s0.2-2.6,0.2-3.3c0.1-0.8-0.1-1.5-0.4-2.2c-0.3-0.4-0.8-0.5-1.3-0.5h-2.1l-3.7,21h-7.5l9.1-51.8h12  c2.7,0,4.5,0.5,5.6,1.6c1.1,1.1,1.6,2.9,1.6,5.5c0,0.5,0,1,0,1.5s-0.1,1.2-0.2,2c-0.1,0.8-0.3,1.7-0.4,2.8c-0.2,1.1-0.4,2.4-0.7,3.9  c-0.3,1.5-0.7,2.9-1.1,4.3c-0.3,1-0.7,1.9-1.2,2.8c-0.4,0.6-0.8,1.2-1.4,1.7c-0.5,0.4-1,0.7-1.6,1l-0.1,0.4c0.5,0.6,0.9,1.3,1,2  c0.2,1.1,0.3,2.2,0.3,3.4c0,1.4-0.1,2.9-0.2,4.5c-0.1,1.6-0.2,3.2-0.4,4.7c-0.2,1.6-0.3,3-0.4,4.5c-0.1,1.4-0.2,2.7-0.2,3.8V55  L142.4,55z M143.7,26.4c0.6,0,1.2-0.1,1.7-0.3c0.5-0.2,0.9-0.6,1.2-1.1c0.4-0.7,0.7-1.4,0.9-2.2c0.3-0.9,0.5-2.1,0.8-3.6  c0.3-1.6,0.5-2.8,0.5-3.6c0.1-0.7,0.1-1.3,0.1-2c0.1-0.6-0.1-1.3-0.5-1.8c-0.5-0.4-1.1-0.5-1.6-0.5h-3l-2.6,14.9L143.7,26.4z"
     id="path13" /><path
     class="st0"
     d="M190.1,55l1.4-13h-4.8l-3.2,13h-7.7l13.9-51.8h12.7L197.8,55H190.1z M194.7,11.7h-0.5l-5.7,22.1h4.2L194.7,11.7  z"
     id="path15" /><path
     class="st0"
     d="M226.4,32.3l1.2-6.7h16.8l-1.2,6.7H226.4z"
     id="path17" /><path
     class="st0"
     d="M283.7,19.3c0.2-1,0.5-2.2,0.7-3.4c0.2-1.1,0.4-2.2,0.4-3.3c0-0.9-0.2-1.4-0.5-1.7c-0.6-0.3-1.3-0.4-1.9-0.4  c-0.5,0-0.9,0.1-1.4,0.2c-0.4,0.1-0.7,0.4-1,0.7c-0.3,0.4-0.6,0.9-0.7,1.5c-0.2,0.8-0.4,1.6-0.6,2.5c-0.3,1.5-0.5,2.6-0.6,3.3  c-0.1,0.6-0.1,1.2-0.1,1.8c0,0.3,0,0.7,0.2,1c0.1,0.3,0.3,0.6,0.5,0.9c0.5,0.5,1,1,1.5,1.4c0.6,0.5,1.3,0.9,2,1.4l2,1.3  c0.7,0.4,1.2,0.8,1.7,1.2c0.7,0.6,1.3,1.3,1.8,2.1c0.5,1,0.7,2,0.6,3.1c0,0.9-0.1,2-0.2,3.4c-0.1,1.4-0.5,3.4-1,6.2  c-0.4,2.2-1,4.4-1.8,6.5c-0.5,1.5-1.4,3-2.5,4.2c-1,1-2.2,1.8-3.6,2.2c-2.8,0.7-5.7,0.8-8.5,0.3c-0.9-0.2-1.7-0.5-2.5-1.1  c-0.7-0.6-1.2-1.3-1.5-2.2c-0.4-1.1-0.5-2.3-0.5-3.5c0-1.9,0.2-3.8,0.5-5.6c0.4-1.9,0.8-3.7,1.4-5.5h6.4c-0.3,1.1-0.6,2.3-0.8,3.4  c-0.2,1.3-0.4,2.6-0.4,3.9c0,1,0.2,1.7,0.6,2c0.5,0.3,1.1,0.4,1.8,0.4c0.5,0,1.1-0.1,1.6-0.2c0.5-0.2,0.9-0.5,1.2-0.9  c0.4-0.6,0.7-1.3,0.9-2c0.3-1.1,0.6-2.2,0.8-3.4c0.3-1.4,0.4-2.3,0.5-2.9c0.1-0.4,0.1-0.9,0.1-1.3c0-0.4,0-0.9-0.2-1.3  c-0.1-0.4-0.3-0.7-0.6-1c-0.5-0.6-1-1.2-1.7-1.6c-0.7-0.5-1.4-1.1-2.2-1.6l-2.3-1.6c-0.7-0.5-1.3-1-1.8-1.6  c-0.5-0.5-0.9-1.1-1.1-1.8c-0.2-0.8-0.3-1.7-0.3-2.6c0-1.1,0.1-2.3,0.2-3.4c0.2-1.3,0.4-3.1,0.9-5.2c0.4-2.1,0.9-4.1,1.7-6.1  c0.5-1.4,1.3-2.7,2.3-3.9c0.9-0.9,2.1-1.6,3.3-2c1.6-0.4,3.2-0.6,4.8-0.6c3,0,5.1,0.5,6.4,1.4c1.2,1,1.8,2.6,1.9,4.9  c0,0.8-0.1,1.6-0.2,2.4c-0.1,0.9-0.3,1.8-0.5,2.7c-0.2,0.9-0.4,1.9-0.6,2.8c-0.2,0.9-0.5,1.8-0.8,2.6L283.7,19.3z"
     id="path19" /><path
     class="st0"
     d="M324.2,55l1.4-13h-4.8l-3.2,13h-7.7l13.9-51.8h12.7L331.9,55H324.2z M328.8,11.7h-0.5l-5.8,22.1h4.2L328.8,11.7  z"
     id="path21" /><path
     class="st0"
     d="M358.3,55l9.1-51.8h17.3l-1.5,8.6h-9.8L371,25.4h9.6l-1.4,8.3h-9.6l-3.8,21.4L358.3,55z"
     id="path23" /><path
     class="st0"
     d="M402.2,55l9.1-51.8h17.5l-1.5,8.6h-10l-2.3,12.7h9.8l-1.5,8.1h-9.8l-2.3,13.4h9.9l-1.6,9L402.2,55z"
     id="path25" /><path
     class="st1"
     d="M5.5,55l4-51.8h7.9C16.8,9,16.3,14,15.9,18.1l-1.1,10.5c-0.3,2.8-0.5,5.1-0.7,6.9c-0.2,1.8-0.3,3.2-0.4,4.2  c-0.1,1.1-0.2,1.9-0.3,2.4c-0.1,0.5-0.1,1-0.2,1.5h0.6c0.1-0.5,0.2-1,0.3-1.5s0.3-1.4,0.6-2.4c0.3-1,0.6-2.4,1-4.2  c0.4-1.8,1-4.1,1.7-6.9c0.7-2.8,1.6-6.3,2.6-10.4c1.1-4.1,2.3-9.1,3.8-15h8.2L17.4,55H5.5z"
     id="path27" /><path
     class="st1"
     d="M49.4,55l9.1-51.8h7.8L57.2,55H49.4z"
     id="path29" /><path
     class="st1"
     d="M85,55l9.1-51.8h11.8c2.7,0,4.6,0.5,5.7,1.6c1.1,1.1,1.7,3,1.8,5.7c0,1.8-0.1,3.5-0.4,5.3  c-0.3,1.8-0.6,3.5-1.1,5.3c-0.2,1-0.5,1.9-0.9,2.8c-0.3,0.7-0.6,1.3-0.9,1.9c-0.3,0.5-0.7,0.9-1.1,1.3c-0.4,0.3-0.8,0.7-1.3,1  l-0.1,0.5c0.3,0.3,0.6,0.5,0.9,0.8c0.3,0.2,0.5,0.5,0.7,0.8c0.2,0.4,0.4,0.7,0.4,1.1c0.1,0.6,0.2,1.1,0.2,1.7c0,1.9-0.2,3.8-0.6,5.7  c-0.4,1.9-0.7,3.8-1.1,5.7c-0.4,1.7-0.9,3.4-1.6,5.1c-0.5,1.2-1.3,2.4-2.2,3.3c-0.8,0.8-1.9,1.4-3,1.8c-1.3,0.4-2.6,0.6-4,0.5L85,55  z M97.3,46.9c0.9,0,1.8-0.4,2.3-1.2c0.8-1.5,1.4-3.1,1.6-4.7c0.3-1.8,0.5-3.2,0.6-4.2c0.1-0.8,0.2-1.6,0.2-2.4c0-1-0.2-1.7-0.5-2  c-0.4-0.3-1-0.4-1.5-0.4h-3.5l-2.7,14.9L97.3,46.9z M100.8,25.3c0.5,0,0.9-0.1,1.4-0.3c0.4-0.3,0.8-0.6,1-1.1  c0.4-0.7,0.7-1.4,0.8-2.2c0.2-0.9,0.5-2.1,0.8-3.6c0.2-1.2,0.4-2.2,0.5-3c0.1-0.7,0.2-1.3,0.2-2c0-0.9-0.2-1.5-0.6-1.6  c-0.5-0.2-1.1-0.3-1.7-0.3h-3l-2.5,14L100.8,25.3z"
     id="path31" /><path
     class="st1"
     d="M146.9,55c0-0.2-0.1-0.4-0.1-0.6c0-0.3,0-0.5,0-0.8c0-0.8,0.1-2,0.2-3.6c0.1-1.6,0.3-3.3,0.4-5  c0.2-1.8,0.3-3.4,0.4-4.9s0.2-2.6,0.2-3.3c0.1-0.8-0.1-1.5-0.4-2.2c-0.3-0.4-0.8-0.5-1.3-0.5h-2.1l-3.7,21h-7.5l9.1-51.8h12  c2.7,0,4.5,0.5,5.6,1.6c1.1,1.1,1.6,2.9,1.6,5.5c0,0.5,0,1,0,1.5s-0.1,1.2-0.2,2s-0.3,1.7-0.4,2.8s-0.4,2.4-0.7,3.9  c-0.3,1.5-0.7,2.9-1.1,4.3c-0.3,1-0.7,1.9-1.2,2.8c-0.4,0.6-0.8,1.2-1.4,1.7c-0.5,0.4-1,0.7-1.6,1l-0.1,0.4c0.5,0.6,0.9,1.3,1,2  c0.2,1.1,0.3,2.2,0.3,3.4c0,1.4-0.1,2.9-0.2,4.5s-0.2,3.2-0.4,4.7c-0.2,1.6-0.3,3-0.4,4.5s-0.2,2.7-0.2,3.8V55L146.9,55z   M148.1,26.4c0.6,0,1.2-0.1,1.7-0.3c0.5-0.2,0.9-0.6,1.2-1.1c0.4-0.7,0.7-1.4,0.9-2.2c0.3-0.9,0.5-2.1,0.8-3.6  c0.3-1.6,0.5-2.8,0.5-3.6c0.1-0.7,0.1-1.3,0.1-2c0.1-0.6-0.1-1.3-0.5-1.8c-0.5-0.4-1.1-0.5-1.6-0.5h-3l-2.6,14.9L148.1,26.4z"
     id="path33" /><path
     class="st1"
     d="M194.6,55l1.4-13h-4.8l-3.2,13h-7.7l13.9-51.8h12.7L202.3,55H194.6z M199.1,11.7h-0.5l-5.8,22.1h4.2L199.1,11.7  z"
     id="path35" /><path
     class="st1"
     d="M230.8,32.3l1.2-6.7h16.9l-1.2,6.7H230.8z"
     id="path37" /><path
     class="st1"
     d="M288.1,19.3c0.2-1,0.5-2.2,0.7-3.4c0.2-1.1,0.4-2.2,0.4-3.3c0-0.9-0.2-1.4-0.5-1.7c-0.6-0.3-1.3-0.4-1.9-0.4  c-0.5,0-0.9,0.1-1.4,0.2c-0.4,0.1-0.7,0.4-1,0.7c-0.3,0.4-0.6,0.9-0.7,1.5c-0.2,0.8-0.4,1.6-0.6,2.5c-0.3,1.5-0.5,2.6-0.6,3.3  c-0.1,0.6-0.1,1.2-0.1,1.8c0,0.3,0,0.7,0.2,1c0.1,0.3,0.3,0.6,0.5,0.9c0.5,0.5,1,1,1.5,1.4c0.6,0.5,1.3,0.9,2,1.4l2,1.3  c0.7,0.4,1.2,0.8,1.7,1.2c0.7,0.6,1.3,1.3,1.8,2.1c0.5,1,0.7,2,0.6,3.1c0,0.9-0.1,2-0.2,3.4c-0.1,1.4-0.5,3.4-1,6.2  c-0.4,2.2-1,4.4-1.8,6.5c-0.5,1.5-1.4,3-2.5,4.2c-1,1-2.2,1.8-3.6,2.2c-2.8,0.7-5.7,0.8-8.5,0.3c-0.9-0.2-1.7-0.5-2.5-1.1  c-0.7-0.6-1.2-1.3-1.5-2.2c-0.4-1.1-0.5-2.3-0.5-3.5c0-1.9,0.2-3.8,0.5-5.6c0.4-1.9,0.8-3.7,1.4-5.5h6.4c-0.3,1.1-0.6,2.3-0.8,3.4  c-0.2,1.3-0.4,2.6-0.4,3.9c0,1,0.2,1.7,0.6,2c0.5,0.3,1.1,0.4,1.8,0.4c0.5,0,1.1-0.1,1.6-0.2c0.5-0.2,0.9-0.5,1.2-0.9  c0.4-0.6,0.7-1.3,0.9-2c0.3-1.1,0.6-2.2,0.8-3.4c0.3-1.4,0.4-2.3,0.5-2.9c0.1-0.4,0.1-0.9,0.1-1.3c0-0.4,0-0.9-0.2-1.3  c-0.1-0.4-0.3-0.7-0.6-1c-0.4-0.6-1-1.2-1.6-1.6c-0.7-0.5-1.4-1.1-2.2-1.6l-2.3-1.7c-0.7-0.5-1.3-1-1.8-1.6  c-0.5-0.5-0.9-1.1-1.1-1.8c-0.2-0.8-0.3-1.7-0.3-2.6c0-1.1,0.1-2.3,0.2-3.4c0.2-1.3,0.4-3.1,0.9-5.2c0.3-2.1,0.9-4.1,1.6-6.1  c0.5-1.4,1.3-2.7,2.3-3.9c0.9-0.9,2.1-1.6,3.3-2c1.6-0.4,3.2-0.6,4.8-0.6c3,0,5.1,0.5,6.4,1.4c1.2,1,1.9,2.6,1.9,4.9  c0,0.8-0.1,1.6-0.2,2.4c-0.1,0.9-0.3,1.8-0.5,2.7s-0.4,1.9-0.6,2.8c-0.2,0.9-0.5,1.8-0.8,2.6L288.1,19.3z"
     id="path39" /><path
     class="st1"
     d="M328.7,55l1.4-13h-4.8L322,55h-7.7l13.9-51.8H341L336.4,55H328.7z M333.2,11.7h-0.5l-5.8,22.1h4.2L333.2,11.7z"
     id="path41" /><path
     class="st1"
     d="M362.8,55l9.1-51.8h17.3l-1.5,8.6h-9.8l-2.4,13.6h9.6l-1.4,8.3H374L370.2,55L362.8,55z"
     id="path43" /><path
     class="st1"
     d="M406.7,55l9.1-51.8h17.5l-1.5,8.6h-10l-2.3,12.7h9.8l-1.4,8.1h-9.8l-2.3,13.4h9.9l-1.6,9L406.7,55z"
     id="path45" /><path
     d="M9.9,55l4-51.8h7.9C21.3,9,20.8,14,20.3,18.1l-1.1,10.5c-0.3,2.8-0.5,5.1-0.7,6.9c-0.2,1.8-0.3,3.2-0.4,4.2  c-0.1,1.1-0.2,1.9-0.3,2.4c-0.1,0.5-0.1,1-0.2,1.5h0.6c0.1-0.5,0.2-1,0.3-1.5c0.1-0.6,0.3-1.4,0.6-2.4s0.6-2.4,1-4.2  c0.4-1.8,1-4.1,1.7-6.9c0.7-2.8,1.6-6.3,2.6-10.4c1.1-4.1,2.3-9.1,3.8-15h8.1L21.9,55L9.9,55z"
     id="path47" /><path
     d="M53.9,55L63,3.2h7.8L61.7,55H53.9z"
     id="path49" /><path
     d="M89.4,55l9.1-51.8h11.8c2.7,0,4.6,0.5,5.7,1.6c1.1,1.1,1.7,3,1.8,5.7c0,1.8-0.1,3.5-0.4,5.3c-0.3,1.8-0.6,3.5-1.1,5.3  c-0.2,1-0.5,1.9-0.9,2.8c-0.3,0.7-0.6,1.3-0.9,1.9c-0.3,0.5-0.7,0.9-1.1,1.3c-0.4,0.3-0.8,0.7-1.3,1l-0.1,0.5  c0.3,0.3,0.6,0.5,0.9,0.8c0.3,0.2,0.5,0.5,0.7,0.8c0.2,0.4,0.4,0.7,0.4,1.1c0.1,0.6,0.2,1.1,0.2,1.7c0,1.9-0.2,3.8-0.6,5.7  c-0.4,1.9-0.7,3.8-1.1,5.7c-0.4,1.7-0.9,3.4-1.6,5.1c-0.5,1.2-1.3,2.4-2.2,3.3c-0.8,0.8-1.9,1.4-3,1.8c-1.3,0.4-2.6,0.6-4,0.5  L89.4,55z M101.8,46.9c0.9,0,1.8-0.4,2.3-1.2c0.8-1.5,1.4-3.1,1.6-4.7c0.3-1.8,0.5-3.2,0.6-4.2c0.1-0.8,0.2-1.6,0.2-2.4  c0-1-0.2-1.7-0.5-2c-0.4-0.3-1-0.4-1.5-0.4H101l-2.7,14.9L101.8,46.9z M105.2,25.3c0.5,0,0.9-0.1,1.4-0.3c0.4-0.3,0.8-0.6,1-1.1  c0.4-0.7,0.6-1.4,0.8-2.1c0.2-0.9,0.5-2.1,0.8-3.6c0.2-1.2,0.4-2.2,0.5-3c0.1-0.7,0.2-1.3,0.2-2c0-0.9-0.2-1.5-0.6-1.6  c-0.5-0.2-1.1-0.3-1.7-0.3h-3l-2.5,14L105.2,25.3z"
     id="path51" /><path
     d="M151.3,55c0-0.2-0.1-0.4-0.1-0.6c0-0.3,0-0.5,0-0.8c0-0.8,0.1-2,0.2-3.6c0.1-1.6,0.3-3.3,0.4-5c0.2-1.8,0.3-3.4,0.4-4.9  s0.2-2.6,0.2-3.3c0.1-0.8-0.1-1.5-0.4-2.2c-0.3-0.4-0.8-0.5-1.3-0.5h-2.1l-3.7,21h-7.5l9.1-51.8h12c2.7,0,4.5,0.5,5.6,1.6  c1.1,1.1,1.6,2.9,1.6,5.5c0,0.5,0,1,0,1.5s-0.1,1.2-0.2,2s-0.3,1.7-0.4,2.8s-0.4,2.4-0.7,3.9c-0.3,1.5-0.7,2.9-1.1,4.3  c-0.3,1-0.7,1.9-1.2,2.8c-0.4,0.6-0.8,1.2-1.4,1.7c-0.5,0.4-1,0.7-1.6,1l-0.1,0.4c0.5,0.6,0.9,1.3,1,2c0.2,1.1,0.3,2.2,0.3,3.4  c0,1.4-0.1,2.9-0.2,4.5s-0.2,3.2-0.4,4.7c-0.2,1.6-0.3,3-0.4,4.5s-0.2,2.7-0.2,3.8V55L151.3,55z M152.5,26.4c0.6,0,1.2-0.1,1.7-0.3  c0.5-0.2,0.9-0.6,1.2-1.1c0.4-0.7,0.7-1.4,0.9-2.2c0.3-0.9,0.5-2.1,0.8-3.6c0.3-1.6,0.5-2.8,0.5-3.6c0.1-0.7,0.1-1.3,0.1-2  c0.1-0.6-0.1-1.3-0.5-1.8c-0.5-0.4-1.1-0.5-1.6-0.5h-3l-2.6,14.9L152.5,26.4z"
     id="path53" /><path
     d="M199,55l1.4-13h-4.8l-3.2,13h-7.7l13.9-51.8h12.7L206.7,55H199z M203.6,11.7H203l-5.8,22.1h4.1L203.6,11.7z"
     id="path55" /><path
     d="M235.3,32.3l1.2-6.7h16.9l-1.2,6.7H235.3z"
     id="path57" /><path
     d="M292.6,19.3c0.2-1,0.5-2.2,0.7-3.4c0.2-1.1,0.4-2.2,0.4-3.3c0-0.9-0.2-1.4-0.5-1.7c-0.6-0.3-1.3-0.4-1.9-0.4  c-0.5,0-0.9,0.1-1.4,0.2c-0.4,0.1-0.7,0.4-1,0.7c-0.3,0.4-0.6,0.9-0.7,1.5c-0.2,0.8-0.4,1.6-0.6,2.5c-0.3,1.5-0.5,2.6-0.6,3.3  c-0.1,0.6-0.1,1.2-0.1,1.8c0,0.3,0,0.7,0.2,1c0.1,0.3,0.3,0.6,0.5,0.9c0.5,0.5,1,1,1.5,1.4c0.6,0.5,1.3,0.9,2,1.4l2,1.3  c0.7,0.4,1.2,0.8,1.7,1.2c0.7,0.6,1.3,1.3,1.8,2.1c0.5,1,0.7,2,0.6,3.1c0,0.9-0.1,2-0.2,3.4c-0.1,1.4-0.5,3.4-1,6.2  c-0.4,2.2-1,4.4-1.8,6.5c-0.5,1.5-1.4,3-2.5,4.2c-1,1-2.2,1.8-3.6,2.2c-2.8,0.7-5.7,0.8-8.5,0.3c-0.9-0.2-1.7-0.5-2.5-1.1  c-0.7-0.6-1.2-1.3-1.5-2.2c-0.4-1.1-0.5-2.3-0.5-3.5c0-1.9,0.2-3.8,0.5-5.6c0.4-1.9,0.8-3.7,1.4-5.5h6.3c-0.3,1.1-0.6,2.3-0.8,3.4  c-0.2,1.3-0.4,2.6-0.4,3.9c0,1,0.2,1.7,0.6,2c0.5,0.3,1.1,0.4,1.8,0.4c0.5,0,1.1-0.1,1.6-0.2c0.5-0.2,0.9-0.5,1.2-0.9  c0.4-0.6,0.7-1.3,0.9-2c0.3-1.1,0.6-2.2,0.8-3.4c0.3-1.4,0.4-2.3,0.5-2.9c0.1-0.4,0.1-0.9,0.1-1.3c0-0.4,0-0.9-0.2-1.3  c-0.1-0.4-0.3-0.7-0.6-1c-0.4-0.6-1-1.2-1.6-1.6c-0.7-0.5-1.4-1.1-2.2-1.6l-2.3-1.6c-0.7-0.5-1.3-1-1.8-1.6  c-0.5-0.5-0.9-1.1-1.1-1.8c-0.2-0.8-0.3-1.7-0.3-2.6c0-1.1,0.1-2.3,0.2-3.4c0.2-1.3,0.4-3.1,0.9-5.2c0.4-2.1,0.9-4.1,1.6-6.1  c0.5-1.4,1.3-2.7,2.3-3.9c0.9-0.9,2.1-1.6,3.3-2c1.6-0.4,3.2-0.6,4.8-0.6c3,0,5.1,0.5,6.4,1.4s1.9,2.6,1.9,4.9  c0,0.8-0.1,1.6-0.2,2.4c-0.1,0.9-0.3,1.8-0.5,2.7c-0.2,0.9-0.4,1.9-0.6,2.8c-0.2,0.9-0.5,1.8-0.8,2.6L292.6,19.3z"
     id="path59" /><path
     d="M333.1,55l1.4-13h-4.8l-3.2,13h-7.7l13.9-51.8h12.7L340.8,55H333.1z M337.7,11.7h-0.5l-5.7,22.1h4.2L337.7,11.7z"
     id="path61" /><path
     d="M367.2,55l9.1-51.8h17.3l-1.5,8.6h-9.8l-2.4,13.6h9.6l-1.4,8.3h-9.6l-3.8,21.4L367.2,55z"
     id="path63" /><path
     d="M411.1,55l9.1-51.8h17.5l-1.5,8.6h-10L424,24.5h9.8l-1.4,8.1h-9.8l-2.3,13.4h9.9l-1.6,9L411.1,55z"
     id="path65" /></svg>