<svg xmlns="http://www.w3.org/2000/svg" id="Layer_1" viewBox="0 0 444.2 55.9"><style id="style3">.st0{fill:#bfbbbc}.st1{fill:#878787}</style><title id="title5">vibrasafe logo asset</title><path class="st0" d="M1.1 55l4-51.8H13C12.4 9 11.9 14 11.5 18.1l-1.1 10.5c-.3 2.8-.5 5.1-.7 6.9-.2 1.8-.3 3.2-.4 4.2-.1 1.1-.2 1.9-.3 2.4-.1.5-.1 1-.2 1.5h.6l.3-1.5c.1-.5.3-1.4.6-2.4s.6-2.4 1-4.2c.4-1.8 1-4.1 1.7-6.9.7-2.8 1.6-6.3 2.6-10.4 1.1-4.1 2.3-9.1 3.8-15h8.2L13 55H1.1z" id="path7"/><path class="st0" d="M45 55l9.1-51.8h7.8L52.8 55H45z" id="path9"/><path class="st0" d="M80.5 55l9.1-51.8h11.8c2.7 0 4.6.5 5.7 1.6 1.1 1.1 1.7 3 1.8 5.7 0 1.8-.1 3.5-.4 5.3-.3 1.8-.6 3.5-1.1 5.3-.2 1-.5 1.9-.9 2.8-.3.7-.6 1.3-.9 1.9-.3.5-.7.9-1.1 1.3-.4.3-.8.7-1.3 1l-.1.5c.3.3.6.5.9.8.3.2.5.5.7.8.2.4.4.7.4 1.1.1.6.2 1.1.2 1.7 0 1.9-.2 3.8-.6 5.7-.4 1.9-.7 3.8-1.1 5.7-.4 1.7-.9 3.4-1.6 5.1-.5 1.2-1.3 2.4-2.2 3.3-.8.8-1.9 1.4-3 1.8-1.3.4-2.6.6-4 .5L80.5 55zm12.4-8.1c.9 0 1.8-.4 2.3-1.2.8-1.5 1.4-3.1 1.6-4.7.3-1.8.5-3.2.6-4.2.1-.8.2-1.6.2-2.4 0-1-.2-1.7-.5-2-.4-.3-1-.4-1.5-.4h-3.5l-2.7 14.9h3.5zm3.4-21.6c.5 0 .9-.1 1.4-.3.4-.3.8-.6 1-1.1.4-.7.7-1.4.8-2.2.2-.9.5-2.1.8-3.6.2-1.2.4-2.2.5-3 .1-.7.2-1.3.2-2 0-.9-.2-1.5-.6-1.6-.5-.2-1.1-.3-1.7-.3h-3l-2.5 14 3.1.1z" id="path11"/><path class="st0" d="M142.4 55c0-.2-.1-.4-.1-.6v-.8c0-.8.1-2 .2-3.6s.3-3.3.4-5c.2-1.8.3-3.4.4-4.9s.2-2.6.2-3.3c.1-.8-.1-1.5-.4-2.2-.3-.4-.8-.5-1.3-.5h-2.1l-3.7 21h-7.5l9.1-51.8h12c2.7 0 4.5.5 5.6 1.6 1.1 1.1 1.6 2.9 1.6 5.5v1.5c0 .5-.1 1.2-.2 2s-.3 1.7-.4 2.8c-.2 1.1-.4 2.4-.7 3.9-.3 1.5-.7 2.9-1.1 4.3-.3 1-.7 1.9-1.2 2.8-.4.6-.8 1.2-1.4 1.7-.5.4-1 .7-1.6 1l-.1.4c.5.6.9 1.3 1 2 .2 1.1.3 2.2.3 3.4 0 1.4-.1 2.9-.2 4.5s-.2 3.2-.4 4.7c-.2 1.6-.3 3-.4 4.5-.1 1.4-.2 2.7-.2 3.8V55h-7.8zm1.3-28.6c.6 0 1.2-.1 1.7-.3.5-.2.9-.6 1.2-1.1.4-.7.7-1.4.9-2.2.3-.9.5-2.1.8-3.6.3-1.6.5-2.8.5-3.6.1-.7.1-1.3.1-2 .1-.6-.1-1.3-.5-1.8-.5-.4-1.1-.5-1.6-.5h-3l-2.6 14.9 2.5.2z" id="path13"/><path class="st0" d="M190.1 55l1.4-13h-4.8l-3.2 13h-7.7l13.9-51.8h12.7L197.8 55h-7.7zm4.6-43.3h-.5l-5.7 22.1h4.2l2-22.1z" id="path15"/><path class="st0" d="M226.4 32.3l1.2-6.7h16.8l-1.2 6.7h-16.8z" id="path17"/><path class="st0" d="M283.7 19.3c.2-1 .5-2.2.7-3.4.2-1.1.4-2.2.4-3.3 0-.9-.2-1.4-.5-1.7-.6-.3-1.3-.4-1.9-.4-.5 0-.9.1-1.4.2-.4.1-.7.4-1 .7-.3.4-.6.9-.7 1.5-.2.8-.4 1.6-.6 2.5-.3 1.5-.5 2.6-.6 3.3-.1.6-.1 1.2-.1 1.8 0 .3 0 .7.2 1 .1.3.3.6.5.9.5.5 1 1 1.5 1.4.6.5 1.3.9 2 1.4l2 1.3c.7.4 1.2.8 1.7 1.2.7.6 1.3 1.3 1.8 2.1.5 1 .7 2 .6 3.1 0 .9-.1 2-.2 3.4s-.5 3.4-1 6.2c-.4 2.2-1 4.4-1.8 6.5-.5 1.5-1.4 3-2.5 4.2-1 1-2.2 1.8-3.6 2.2-2.8.7-5.7.8-8.5.3-.9-.2-1.7-.5-2.5-1.1-.7-.6-1.2-1.3-1.5-2.2-.4-1.1-.5-2.3-.5-3.5 0-1.9.2-3.8.5-5.6.4-1.9.8-3.7 1.4-5.5h6.4c-.3 1.1-.6 2.3-.8 3.4-.2 1.3-.4 2.6-.4 3.9 0 1 .2 1.7.6 2 .5.3 1.1.4 1.8.4.5 0 1.1-.1 1.6-.2.5-.2.9-.5 1.2-.9.4-.6.7-1.3.9-2 .3-1.1.6-2.2.8-3.4.3-1.4.4-2.3.5-2.9.1-.4.1-.9.1-1.3s0-.9-.2-1.3c-.1-.4-.3-.7-.6-1-.5-.6-1-1.2-1.7-1.6-.7-.5-1.4-1.1-2.2-1.6l-2.3-1.6c-.7-.5-1.3-1-1.8-1.6-.5-.5-.9-1.1-1.1-1.8-.2-.8-.3-1.7-.3-2.6 0-1.1.1-2.3.2-3.4.2-1.3.4-3.1.9-5.2.4-2.1.9-4.1 1.7-6.1.5-1.4 1.3-2.7 2.3-3.9.9-.9 2.1-1.6 3.3-2 1.6-.4 3.2-.6 4.8-.6 3 0 5.1.5 6.4 1.4 1.2 1 1.8 2.6 1.9 4.9 0 .8-.1 1.6-.2 2.4-.1.9-.3 1.8-.5 2.7-.2.9-.4 1.9-.6 2.8-.2.9-.5 1.8-.8 2.6h-6.3z" id="path19"/><path class="st0" d="M324.2 55l1.4-13h-4.8l-3.2 13h-7.7l13.9-51.8h12.7L331.9 55h-7.7zm4.6-43.3h-.5l-5.8 22.1h4.2l2.1-22.1z" id="path21"/><path class="st0" d="M358.3 55l9.1-51.8h17.3l-1.5 8.6h-9.8L371 25.4h9.6l-1.4 8.3h-9.6l-3.8 21.4-7.5-.1z" id="path23"/><path class="st0" d="M402.2 55l9.1-51.8h17.5l-1.5 8.6h-10L415 24.5h9.8l-1.5 8.1h-9.8L411.2 46h9.9l-1.6 9h-17.3z" id="path25"/><path class="st1" d="M5.5 55l4-51.8h7.9C16.8 9 16.3 14 15.9 18.1l-1.1 10.5c-.3 2.8-.5 5.1-.7 6.9-.2 1.8-.3 3.2-.4 4.2-.1 1.1-.2 1.9-.3 2.4-.1.5-.1 1-.2 1.5h.6l.3-1.5c.1-.5.3-1.4.6-2.4s.6-2.4 1-4.2c.4-1.8 1-4.1 1.7-6.9.7-2.8 1.6-6.3 2.6-10.4 1.1-4.1 2.3-9.1 3.8-15H32L17.4 55H5.5z" id="path27"/><path class="st1" d="M49.4 55l9.1-51.8h7.8L57.2 55h-7.8z" id="path29"/><path class="st1" d="M85 55l9.1-51.8h11.8c2.7 0 4.6.5 5.7 1.6 1.1 1.1 1.7 3 1.8 5.7 0 1.8-.1 3.5-.4 5.3-.3 1.8-.6 3.5-1.1 5.3-.2 1-.5 1.9-.9 2.8-.3.7-.6 1.3-.9 1.9-.3.5-.7.9-1.1 1.3-.4.3-.8.7-1.3 1l-.1.5c.3.3.6.5.9.8.3.2.5.5.7.8.2.4.4.7.4 1.1.1.6.2 1.1.2 1.7 0 1.9-.2 3.8-.6 5.7-.4 1.9-.7 3.8-1.1 5.7-.4 1.7-.9 3.4-1.6 5.1-.5 1.2-1.3 2.4-2.2 3.3-.8.8-1.9 1.4-3 1.8-1.3.4-2.6.6-4 .5L85 55zm12.3-8.1c.9 0 1.8-.4 2.3-1.2.8-1.5 1.4-3.1 1.6-4.7.3-1.8.5-3.2.6-4.2.1-.8.2-1.6.2-2.4 0-1-.2-1.7-.5-2-.4-.3-1-.4-1.5-.4h-3.5l-2.7 14.9h3.5zm3.5-21.6c.5 0 .9-.1 1.4-.3.4-.3.8-.6 1-1.1.4-.7.7-1.4.8-2.2.2-.9.5-2.1.8-3.6.2-1.2.4-2.2.5-3 .1-.7.2-1.3.2-2 0-.9-.2-1.5-.6-1.6-.5-.2-1.1-.3-1.7-.3h-3l-2.5 14 3.1.1z" id="path31"/><path class="st1" d="M146.9 55c0-.2-.1-.4-.1-.6v-.8c0-.8.1-2 .2-3.6s.3-3.3.4-5c.2-1.8.3-3.4.4-4.9s.2-2.6.2-3.3c.1-.8-.1-1.5-.4-2.2-.3-.4-.8-.5-1.3-.5h-2.1l-3.7 21H133l9.1-51.8h12c2.7 0 4.5.5 5.6 1.6 1.1 1.1 1.6 2.9 1.6 5.5v1.5c0 .5-.1 1.2-.2 2s-.3 1.7-.4 2.8-.4 2.4-.7 3.9c-.3 1.5-.7 2.9-1.1 4.3-.3 1-.7 1.9-1.2 2.8-.4.6-.8 1.2-1.4 1.7-.5.4-1 .7-1.6 1l-.1.4c.5.6.9 1.3 1 2 .2 1.1.3 2.2.3 3.4 0 1.4-.1 2.9-.2 4.5s-.2 3.2-.4 4.7c-.2 1.6-.3 3-.4 4.5s-.2 2.7-.2 3.8V55h-7.8zm1.2-28.6c.6 0 1.2-.1 1.7-.3.5-.2.9-.6 1.2-1.1.4-.7.7-1.4.9-2.2.3-.9.5-2.1.8-3.6.3-1.6.5-2.8.5-3.6.1-.7.1-1.3.1-2 .1-.6-.1-1.3-.5-1.8-.5-.4-1.1-.5-1.6-.5h-3l-2.6 14.9 2.5.2z" id="path33"/><path class="st1" d="M194.6 55l1.4-13h-4.8L188 55h-7.7l13.9-51.8h12.7L202.3 55h-7.7zm4.5-43.3h-.5l-5.8 22.1h4.2l2.1-22.1z" id="path35"/><path class="st1" d="M230.8 32.3l1.2-6.7h16.9l-1.2 6.7h-16.9z" id="path37"/><path class="st1" d="M288.1 19.3c.2-1 .5-2.2.7-3.4.2-1.1.4-2.2.4-3.3 0-.9-.2-1.4-.5-1.7-.6-.3-1.3-.4-1.9-.4-.5 0-.9.1-1.4.2-.4.1-.7.4-1 .7-.3.4-.6.9-.7 1.5-.2.8-.4 1.6-.6 2.5-.3 1.5-.5 2.6-.6 3.3-.1.6-.1 1.2-.1 1.8 0 .3 0 .7.2 1 .1.3.3.6.5.9.5.5 1 1 1.5 1.4.6.5 1.3.9 2 1.4l2 1.3c.7.4 1.2.8 1.7 1.2.7.6 1.3 1.3 1.8 2.1.5 1 .7 2 .6 3.1 0 .9-.1 2-.2 3.4s-.5 3.4-1 6.2c-.4 2.2-1 4.4-1.8 6.5-.5 1.5-1.4 3-2.5 4.2-1 1-2.2 1.8-3.6 2.2-2.8.7-5.7.8-8.5.3-.9-.2-1.7-.5-2.5-1.1-.7-.6-1.2-1.3-1.5-2.2-.4-1.1-.5-2.3-.5-3.5 0-1.9.2-3.8.5-5.6.4-1.9.8-3.7 1.4-5.5h6.4c-.3 1.1-.6 2.3-.8 3.4-.2 1.3-.4 2.6-.4 3.9 0 1 .2 1.7.6 2 .5.3 1.1.4 1.8.4.5 0 1.1-.1 1.6-.2.5-.2.9-.5 1.2-.9.4-.6.7-1.3.9-2 .3-1.1.6-2.2.8-3.4.3-1.4.4-2.3.5-2.9.1-.4.1-.9.1-1.3s0-.9-.2-1.3c-.1-.4-.3-.7-.6-1-.4-.6-1-1.2-1.6-1.6-.7-.5-1.4-1.1-2.2-1.6l-2.3-1.7c-.7-.5-1.3-1-1.8-1.6-.5-.5-.9-1.1-1.1-1.8-.2-.8-.3-1.7-.3-2.6 0-1.1.1-2.3.2-3.4.2-1.3.4-3.1.9-5.2.3-2.1.9-4.1 1.6-6.1.5-1.4 1.3-2.7 2.3-3.9.9-.9 2.1-1.6 3.3-2 1.6-.4 3.2-.6 4.8-.6 3 0 5.1.5 6.4 1.4 1.2 1 1.9 2.6 1.9 4.9 0 .8-.1 1.6-.2 2.4-.1.9-.3 1.8-.5 2.7s-.4 1.9-.6 2.8c-.2.9-.5 1.8-.8 2.6l-6.3.1z" id="path39"/><path class="st1" d="M328.7 55l1.4-13h-4.8L322 55h-7.7l13.9-51.8H341L336.4 55h-7.7zm4.5-43.3h-.5l-5.8 22.1h4.2l2.1-22.1z" id="path41"/><path class="st1" d="M362.8 55l9.1-51.8h17.3l-1.5 8.6h-9.8l-2.4 13.6h9.6l-1.4 8.3H374L370.2 55h-7.4z" id="path43"/><path class="st1" d="M406.7 55l9.1-51.8h17.5l-1.5 8.6h-10l-2.3 12.7h9.8l-1.4 8.1h-9.8L415.8 46h9.9l-1.6 9h-17.4z" id="path45"/><path d="M9.9 55l4-51.8h7.9c-.5 5.8-1 10.8-1.5 14.9l-1.1 10.5c-.3 2.8-.5 5.1-.7 6.9-.2 1.8-.3 3.2-.4 4.2-.1 1.1-.2 1.9-.3 2.4-.1.5-.1 1-.2 1.5h.6l.3-1.5c.1-.6.3-1.4.6-2.4s.6-2.4 1-4.2c.4-1.8 1-4.1 1.7-6.9.7-2.8 1.6-6.3 2.6-10.4 1.1-4.1 2.3-9.1 3.8-15h8.1L21.9 55h-12z" id="path47"/><path d="M53.9 55L63 3.2h7.8L61.7 55h-7.8z" id="path49"/><path d="M89.4 55l9.1-51.8h11.8c2.7 0 4.6.5 5.7 1.6 1.1 1.1 1.7 3 1.8 5.7 0 1.8-.1 3.5-.4 5.3-.3 1.8-.6 3.5-1.1 5.3-.2 1-.5 1.9-.9 2.8-.3.7-.6 1.3-.9 1.9-.3.5-.7.9-1.1 1.3-.4.3-.8.7-1.3 1l-.1.5c.3.3.6.5.9.8.3.2.5.5.7.8.2.4.4.7.4 1.1.1.6.2 1.1.2 1.7 0 1.9-.2 3.8-.6 5.7-.4 1.9-.7 3.8-1.1 5.7-.4 1.7-.9 3.4-1.6 5.1-.5 1.2-1.3 2.4-2.2 3.3-.8.8-1.9 1.4-3 1.8-1.3.4-2.6.6-4 .5L89.4 55zm12.4-8.1c.9 0 1.8-.4 2.3-1.2.8-1.5 1.4-3.1 1.6-4.7.3-1.8.5-3.2.6-4.2.1-.8.2-1.6.2-2.4 0-1-.2-1.7-.5-2-.4-.3-1-.4-1.5-.4H101l-2.7 14.9h3.5zm3.4-21.6c.5 0 .9-.1 1.4-.3.4-.3.8-.6 1-1.1.4-.7.6-1.4.8-2.1.2-.9.5-2.1.8-3.6.2-1.2.4-2.2.5-3 .1-.7.2-1.3.2-2 0-.9-.2-1.5-.6-1.6-.5-.2-1.1-.3-1.7-.3h-3l-2.5 14h3.1z" id="path51"/><path d="M151.3 55c0-.2-.1-.4-.1-.6v-.8c0-.8.1-2 .2-3.6s.3-3.3.4-5c.2-1.8.3-3.4.4-4.9s.2-2.6.2-3.3c.1-.8-.1-1.5-.4-2.2-.3-.4-.8-.5-1.3-.5h-2.1l-3.7 21h-7.5l9.1-51.8h12c2.7 0 4.5.5 5.6 1.6 1.1 1.1 1.6 2.9 1.6 5.5v1.5c0 .5-.1 1.2-.2 2s-.3 1.7-.4 2.8-.4 2.4-.7 3.9c-.3 1.5-.7 2.9-1.1 4.3-.3 1-.7 1.9-1.2 2.8-.4.6-.8 1.2-1.4 1.7-.5.4-1 .7-1.6 1l-.1.4c.5.6.9 1.3 1 2 .2 1.1.3 2.2.3 3.4 0 1.4-.1 2.9-.2 4.5s-.2 3.2-.4 4.7c-.2 1.6-.3 3-.4 4.5s-.2 2.7-.2 3.8V55h-7.8zm1.2-28.6c.6 0 1.2-.1 1.7-.3.5-.2.9-.6 1.2-1.1.4-.7.7-1.4.9-2.2.3-.9.5-2.1.8-3.6.3-1.6.5-2.8.5-3.6.1-.7.1-1.3.1-2 .1-.6-.1-1.3-.5-1.8-.5-.4-1.1-.5-1.6-.5h-3L150 26.2l2.5.2z" id="path53"/><path d="M199 55l1.4-13h-4.8l-3.2 13h-7.7l13.9-51.8h12.7L206.7 55H199zm4.6-43.3h-.6l-5.8 22.1h4.1l2.3-22.1z" id="path55"/><path d="M235.3 32.3l1.2-6.7h16.9l-1.2 6.7h-16.9z" id="path57"/><path d="M292.6 19.3c.2-1 .5-2.2.7-3.4.2-1.1.4-2.2.4-3.3 0-.9-.2-1.4-.5-1.7-.6-.3-1.3-.4-1.9-.4-.5 0-.9.1-1.4.2-.4.1-.7.4-1 .7-.3.4-.6.9-.7 1.5-.2.8-.4 1.6-.6 2.5-.3 1.5-.5 2.6-.6 3.3-.1.6-.1 1.2-.1 1.8 0 .3 0 .7.2 1 .1.3.3.6.5.9.5.5 1 1 1.5 1.4.6.5 1.3.9 2 1.4l2 1.3c.7.4 1.2.8 1.7 1.2.7.6 1.3 1.3 1.8 2.1.5 1 .7 2 .6 3.1 0 .9-.1 2-.2 3.4s-.5 3.4-1 6.2c-.4 2.2-1 4.4-1.8 6.5-.5 1.5-1.4 3-2.5 4.2-1 1-2.2 1.8-3.6 2.2-2.8.7-5.7.8-8.5.3-.9-.2-1.7-.5-2.5-1.1-.7-.6-1.2-1.3-1.5-2.2-.4-1.1-.5-2.3-.5-3.5 0-1.9.2-3.8.5-5.6.4-1.9.8-3.7 1.4-5.5h6.3c-.3 1.1-.6 2.3-.8 3.4-.2 1.3-.4 2.6-.4 3.9 0 1 .2 1.7.6 2 .5.3 1.1.4 1.8.4.5 0 1.1-.1 1.6-.2.5-.2.9-.5 1.2-.9.4-.6.7-1.3.9-2 .3-1.1.6-2.2.8-3.4.3-1.4.4-2.3.5-2.9.1-.4.1-.9.1-1.3s0-.9-.2-1.3c-.1-.4-.3-.7-.6-1-.4-.6-1-1.2-1.6-1.6-.7-.5-1.4-1.1-2.2-1.6l-2.3-1.6c-.7-.5-1.3-1-1.8-1.6-.5-.5-.9-1.1-1.1-1.8-.2-.8-.3-1.7-.3-2.6 0-1.1.1-2.3.2-3.4.2-1.3.4-3.1.9-5.2.4-2.1.9-4.1 1.6-6.1.5-1.4 1.3-2.7 2.3-3.9.9-.9 2.1-1.6 3.3-2 1.6-.4 3.2-.6 4.8-.6 3 0 5.1.5 6.4 1.4s1.9 2.6 1.9 4.9c0 .8-.1 1.6-.2 2.4-.1.9-.3 1.8-.5 2.7-.2.9-.4 1.9-.6 2.8-.2.9-.5 1.8-.8 2.6h-6.2z" id="path59"/><path d="M333.1 55l1.4-13h-4.8l-3.2 13h-7.7l13.9-51.8h12.7L340.8 55h-7.7zm4.6-43.3h-.5l-5.7 22.1h4.2l2-22.1z" id="path61"/><path d="M367.2 55l9.1-51.8h17.3l-1.5 8.6h-9.8l-2.4 13.6h9.6l-1.4 8.3h-9.6l-3.8 21.4-7.5-.1z" id="path63"/><path d="M411.1 55l9.1-51.8h17.5l-1.5 8.6h-10L424 24.5h9.8l-1.4 8.1h-9.8L420.3 46h9.9l-1.6 9h-17.5z" id="path65"/></svg>